<svg width="30" height="37" viewBox="0 0 30 37" fill="none" xmlns="http://www.w3.org/2000/svg">
<path d="M27.5288 9.49187L20.2142 7.24948C20.2142 7.05162 20.2636 6.91972 20.2636 6.72186C20.2636 3.42423 18.2867 0.786133 15.8649 0.786133C13.3937 0.786133 11.4168 3.42423 11.4168 6.72186C11.4168 7.38139 11.5651 8.23877 11.8616 9.22806L10.4283 9.62377L3.95387 7.18353C3.01483 6.85377 2.02636 7.05163 1.23558 7.84306C0.44481 8.63449 0 9.82163 0 11.1407V30.0031C0 31.8498 0.939045 33.4986 2.27348 33.9603L10.0824 36.9281C10.0824 36.9281 10.0824 36.9281 10.1318 36.9281C10.2306 36.9281 10.3295 36.9941 10.4283 36.9941C10.5272 36.9941 10.5766 36.9941 10.6755 36.9941L19.6705 34.4879L26.1944 36.5324C26.4415 36.5984 26.6392 36.6643 26.8863 36.6643C27.5783 36.6643 28.2702 36.3346 28.8138 35.741C29.5552 34.9496 30 33.7624 30 32.5093V13.515C29.9506 11.6024 28.9621 9.95354 27.5288 9.49187ZM15.8155 3.754C17.0511 3.754 17.9901 5.07305 17.9901 6.72186C17.9901 7.44734 17.2982 9.62377 15.7661 12.7895C14.2339 9.62377 13.542 7.51329 13.542 6.72186C13.5914 5.07305 14.5799 3.754 15.8155 3.754ZM12.8007 11.9321C13.3443 13.2512 13.9868 14.5702 14.5799 15.6914C14.827 16.219 15.3213 16.5488 15.7661 16.5488C16.2603 16.5488 16.7051 16.219 16.9522 15.6914C17.4465 14.7021 17.9901 13.6469 18.4843 12.5257V31.6519L11.5157 33.6305V12.3278L12.8007 11.9321ZM2.27348 29.9372V11.1407C2.27348 10.745 2.42175 10.4152 2.61944 10.2173C2.81713 10.0195 3.11367 9.95354 3.36079 10.0195L9.2916 12.2619V33.4986L2.86656 31.0584C2.52059 30.9265 2.27348 30.4648 2.27348 29.9372ZM27.7265 32.3774C27.7265 32.8391 27.5288 33.1688 27.3806 33.3007C27.2817 33.4326 26.9852 33.6305 26.6392 33.4986L20.7084 31.6519V10.4152L27.0346 12.3938C27.43 12.5257 27.7265 12.9874 27.7265 13.515V32.3774Z" fill="#FFFDC7"/>
</svg>
